<svg width="116" height="120" viewBox="0 0 116 120" fill="none" xmlns="http://www.w3.org/2000/svg">
<path d="M49.4774 59.2757C17.5758 63.4794 -15.612 89.5848 10.0737 103.15C10.0737 103.15 3.46471 82.9083 39.2603 75.6666C75.056 68.425 102.849 59.6996 98.0981 42.7788C98.0623 42.7788 81.3791 55.072 49.4774 59.2757Z" fill="#CD9EEB"/>
<path d="M39.8699 82.5905C11.8621 88.4545 12.6123 98.4162 16.2205 104.421C15.4345 104.527 14.6486 104.633 13.8627 104.739C12.9338 104.845 11.8264 105.093 11.3262 105.976C10.7547 106.965 11.7907 107.601 12.4337 108.201C14.1842 109.862 15.7918 111.734 17.185 113.712C17.8995 114.701 18.5425 115.726 19.1498 116.821C19.4356 117.351 19.7214 117.88 20.0072 118.41C20.2216 118.834 20.686 119.505 20.7574 120C19.9358 112.476 23.6868 104.669 30.1172 100.571C29.8314 100.712 29.5099 100.818 29.2241 100.96C26.7948 101.949 24.2584 102.726 21.722 103.397C21.6863 103.397 21.6505 103.397 21.6148 103.432C25.473 93.3647 40.5129 89.4082 60.5542 85.7344C84.2036 81.3894 74.7724 69.9087 74.7724 69.9087C74.7724 70.3679 79.095 74.3597 39.8699 82.5905Z" fill="#393939"/>
<path d="M89.1319 8.33677C89.5248 8.51339 89.8821 8.65469 90.275 8.83132C93.2759 10.209 96.2052 11.7633 98.9917 13.5296C99.4919 13.8475 99.9563 14.1654 100.421 14.4834C90.275 25.3989 58.6591 33.3824 58.6591 33.3824C-0.3929 42.8142 6.77919e-05 80.0118 6.77919e-05 80.0118C6.77919e-05 80.0118 10.8959 58.3927 62.0172 49.3494C95.3479 43.4501 95.6337 40.0235 104.922 17.7686C105.601 18.2985 106.279 18.8284 106.923 19.3936C107.816 20.1354 108.995 20.9126 110.245 20.63C111.638 20.312 111.352 18.793 111.352 17.698C111.388 14.66 111.71 11.622 112.353 8.65469C112.674 7.17103 113.067 5.68737 113.531 4.23903C113.746 3.53253 113.996 2.7907 114.282 2.08419C114.532 1.44834 114.746 0.459229 115.139 0C108.923 7.24168 98.4559 10.5976 89.1319 8.33677Z" fill="white"/>
</svg>
