<svg width="39" height="40" viewBox="0 0 39 40" fill="none" xmlns="http://www.w3.org/2000/svg">
<path d="M16.4925 19.7587C5.85859 21.16 -5.204 29.8618 3.3579 34.3834C3.3579 34.3834 1.1549 27.6363 13.0868 25.2224C25.0187 22.8085 34.2831 19.9 32.6993 14.2598C32.6874 14.2598 27.1264 18.3575 16.4925 19.7587Z" fill="#CD9EEB"/>
<path d="M13.2906 27.53C3.95469 29.4847 4.20476 32.8052 5.40747 34.807C5.14549 34.8423 4.88352 34.8776 4.62154 34.913C4.31193 34.9483 3.94278 35.0307 3.77607 35.3251C3.58554 35.6548 3.93087 35.8668 4.14522 36.0669C4.72871 36.6204 5.26458 37.2444 5.72899 37.9038C5.96715 38.2336 6.1815 38.575 6.38393 38.9401C6.4792 39.1167 6.57446 39.2933 6.66973 39.4699C6.74117 39.6112 6.89598 39.835 6.9198 39.9998C6.64591 37.4917 7.89626 34.8894 10.0397 33.5235C9.94444 33.5706 9.83727 33.6059 9.742 33.653C8.93226 33.9827 8.08678 34.2418 7.24131 34.4655C7.2294 34.4655 7.2175 34.4655 7.20559 34.4773C8.49166 31.1214 13.505 29.8026 20.1854 28.578C28.0685 27.1296 24.9248 23.3027 24.9248 23.3027C24.9248 23.4558 26.3657 24.7864 13.2906 27.53Z" fill="#393939"/>
<path d="M29.7106 2.77892C29.8416 2.8378 29.9607 2.8849 30.0917 2.94377C31.092 3.403 32.0684 3.92111 32.9972 4.50986C33.164 4.61584 33.3188 4.72181 33.4736 4.82779C30.0917 8.46629 19.553 11.1275 19.553 11.1275C-0.130967 14.2714 2.25973e-05 26.6706 2.25973e-05 26.6706C2.25973e-05 26.6706 3.63198 19.4642 20.6724 16.4498C31.7826 14.4834 31.8779 13.3412 34.974 5.92287C35.2002 6.0995 35.4265 6.27612 35.6408 6.46453C35.9385 6.7118 36.3315 6.97085 36.7483 6.87665C37.2127 6.77068 37.1174 6.26435 37.1174 5.89932C37.1293 4.88666 37.2365 3.87401 37.4509 2.8849C37.558 2.39034 37.689 1.89579 37.8438 1.41301C37.9153 1.17751 37.9986 0.930232 38.0939 0.69473C38.1772 0.482779 38.2487 0.153076 38.3797 0C36.3077 2.41389 32.8186 3.53253 29.7106 2.77892Z" fill="#850DCE"/>
</svg>
