<svg width="408" height="408" viewBox="0 0 408 408" fill="none" xmlns="http://www.w3.org/2000/svg">
<g clip-path="url(#clip0_2154_14237)">
<path d="M408 312.038H0V312.242H408V312.038Z" fill="#FCE9D1"/>
<path d="M367.118 325.167H340.092V325.371H367.118V325.167Z" fill="#FCE9D1"/>
<path d="M222.948 322.612H212.43V322.816H222.948V322.612Z" fill="#FCE9D1"/>
<path d="M285.33 323.478H263.184V323.682H285.33V323.478Z" fill="#FCE9D1"/>
<path d="M339.276 317.596H293.49V317.8H339.276V317.596Z" fill="#FCE9D1"/>
<path d="M64.4551 327.037H42.8066V327.241H64.4551V327.037Z" fill="#FCE9D1"/>
<path d="M90.4867 327.037H71.7188V327.241H90.4867V327.037Z" fill="#FCE9D1"/>
<path d="M156.517 322.516H106.896V322.72H156.517V322.516Z" fill="#FCE9D1"/>
<path d="M193.392 275.644H35.8309C34.5966 275.642 33.4135 275.15 32.5415 274.277C31.6695 273.403 31.1797 272.219 31.1797 270.985V49.498C31.1904 48.2707 31.6849 47.0973 32.5558 46.2325C33.4267 45.3677 34.6036 44.8815 35.8309 44.8794H193.392C194.628 44.8794 195.813 45.3703 196.687 46.2441C197.561 47.1179 198.052 48.303 198.052 49.5388V270.985C198.052 272.221 197.561 273.406 196.687 274.28C195.813 275.153 194.628 275.644 193.392 275.644ZM35.8309 45.0426C34.6507 45.0448 33.5195 45.5151 32.6857 46.3504C31.852 47.1857 31.3837 48.3177 31.3837 49.498V270.985C31.3837 272.165 31.852 273.297 32.6857 274.132C33.5195 274.968 34.6507 275.438 35.8309 275.44H193.392C194.573 275.438 195.705 274.968 196.54 274.133C197.375 273.298 197.846 272.166 197.848 270.985V49.498C197.846 48.317 197.375 47.185 196.54 46.3499C195.705 45.5148 194.573 45.0448 193.392 45.0426H35.8309Z" fill="#FCE9D1"/>
<path d="M369.901 275.644H212.331C211.096 275.642 209.912 275.15 209.039 274.277C208.166 273.404 207.674 272.22 207.672 270.985V49.498C207.685 48.27 208.181 47.0965 209.053 46.232C209.925 45.3675 211.103 44.8815 212.331 44.8794H369.901C371.127 44.8836 372.302 45.3708 373.171 46.2354C374.04 47.0999 374.533 48.2721 374.544 49.498V270.985C374.544 272.218 374.055 273.4 373.185 274.274C372.315 275.147 371.134 275.64 369.901 275.644ZM212.331 45.0426C211.15 45.0448 210.018 45.5148 209.183 46.3499C208.348 47.185 207.878 48.317 207.876 49.498V270.985C207.878 272.166 208.348 273.298 209.183 274.133C210.018 274.968 211.15 275.438 212.331 275.44H369.901C371.082 275.438 372.214 274.968 373.049 274.133C373.884 273.298 374.354 272.166 374.356 270.985V49.498C374.354 48.317 373.884 47.185 373.049 46.3499C372.214 45.5148 371.082 45.0448 369.901 45.0426H212.331Z" fill="#FCE9D1"/>
<path d="M381.122 158.442C383.679 149.603 383.394 140.183 380.306 131.514C383.585 126.82 385.759 121.445 386.665 115.791C387.57 110.137 387.185 104.351 385.536 98.8673C383.887 93.3836 381.019 88.3443 377.145 84.1272C373.272 79.91 368.494 76.6245 363.17 74.5169C361.613 63.2936 357.17 52.6664 350.276 43.6744C343.381 34.6824 334.272 27.6335 323.837 23.2168C313.403 18.8 302.001 17.1667 290.746 18.4766C279.491 19.7864 268.769 23.9946 259.627 30.6895C255.033 25.8645 249.102 22.5212 242.595 21.0881C236.088 19.6551 229.302 20.1974 223.105 22.6457C216.909 25.094 211.584 29.3368 207.814 34.8303C204.044 40.3238 202 46.8179 201.944 53.4804C193.334 55.2075 185.323 59.1491 178.701 64.9164C172.079 70.6837 167.075 78.0776 164.182 86.3689C161.289 94.6601 160.607 103.562 162.203 112.197C163.8 120.832 167.62 128.902 173.286 135.611C170.515 140.609 168.905 146.167 168.578 151.872C168.251 157.578 169.215 163.284 171.397 168.566C173.579 173.847 176.924 178.569 181.183 182.38C185.442 186.191 190.505 188.993 195.996 190.577C202.406 192.434 209.193 192.563 215.669 190.952C224.447 203.048 237.507 211.34 252.187 214.139C266.867 216.938 282.062 214.033 294.674 206.015C300.819 220.287 305.862 241.699 295.001 262.695C334.454 258.827 362.941 220.989 357.131 186.317C362.902 183.673 368.033 179.813 372.173 175.002C376.314 170.191 379.366 164.542 381.122 158.442Z" fill="#FCE9D1"/>
<path d="M305.445 254.862C305.338 254.862 305.231 254.842 305.132 254.801C305.033 254.761 304.942 254.701 304.866 254.625C304.761 254.52 304.687 254.389 304.651 254.245C304.615 254.102 304.619 253.951 304.662 253.809C310.219 234.454 305.152 215.898 299.929 203.739L297.277 197.579L291.614 201.177C280.235 208.413 266.524 211.037 253.277 208.514C240.029 205.991 228.243 198.511 220.32 187.599L218.052 184.474L214.314 185.404C208.208 186.924 201.791 186.626 195.852 184.547C189.913 182.467 184.711 178.698 180.886 173.702C177.061 168.705 174.78 162.7 174.322 156.424C173.865 150.148 175.252 143.876 178.312 138.378L180.214 134.934L177.676 131.931C172.648 125.983 169.258 118.827 167.839 111.168C166.421 103.51 167.023 95.6143 169.586 88.2597C172.15 80.9051 176.586 74.3457 182.458 69.2286C188.33 64.1114 195.434 60.6132 203.07 59.0789L207.607 58.165L207.656 53.5464C207.698 48.0186 209.39 42.6292 212.516 38.0697C215.641 33.5101 220.058 29.9883 225.198 27.9558C230.339 25.9233 235.97 25.4729 241.369 26.6624C246.767 27.8518 251.687 30.6268 255.498 34.6315L258.958 38.2546L263.038 35.3007C271.38 29.1817 281.168 25.3333 291.443 24.1321C301.719 22.931 312.13 24.4183 321.659 28.4484C331.187 32.4785 339.506 38.9134 345.801 47.1233C352.096 55.3333 356.152 65.0369 357.571 75.2847L358.036 78.5487L361.129 79.7727C365.651 81.5629 369.71 84.3541 372.999 87.9368C376.288 91.5195 378.724 95.8007 380.122 100.459C381.521 105.118 381.846 110.032 381.073 114.834C380.301 119.636 378.451 124.201 375.662 128.186L373.981 130.593L374.968 133.368C378.183 142.418 377.89 152.345 374.147 161.191C370.404 170.036 363.483 177.158 354.748 181.152L350.774 182.98L351.5 187.289C353.948 202.083 349.517 218.24 339.26 231.622C330.791 242.718 319.029 250.849 305.657 254.854C305.587 254.867 305.516 254.869 305.445 254.862ZM297.652 195.579C297.731 195.568 297.811 195.568 297.889 195.579C298.001 195.615 298.105 195.674 298.192 195.752C298.279 195.831 298.349 195.928 298.395 196.036L301.422 203.07C306.628 215.172 311.663 233.499 306.62 252.789C319.087 248.735 330.025 240.982 337.979 230.561C347.951 217.505 352.292 201.838 349.893 187.493L349.077 182.597C349.045 182.42 349.073 182.238 349.156 182.079C349.238 181.919 349.371 181.792 349.534 181.716L354.071 179.635C362.418 175.808 369.031 168.997 372.608 160.54C376.186 152.083 376.469 142.594 373.402 133.939L372.276 130.773C372.233 130.649 372.22 130.518 372.238 130.388C372.257 130.259 372.306 130.136 372.382 130.03L374.299 127.272C376.948 123.49 378.705 119.157 379.44 114.599C380.174 110.04 379.866 105.375 378.539 100.952C377.212 96.5299 374.9 92.4656 371.778 89.0645C368.655 85.6634 364.802 83.0139 360.509 81.3149L356.968 79.9114C356.834 79.8581 356.717 79.7704 356.628 79.6572C356.539 79.544 356.482 79.4093 356.462 79.2667L355.931 75.505C354.556 65.5329 350.613 56.0891 344.49 48.0991C338.367 40.1091 330.273 33.8468 321.001 29.9259C311.73 26.0051 301.599 24.5601 291.601 25.7326C281.603 26.9051 272.081 30.6548 263.968 36.6144L259.341 39.9845C259.182 40.1012 258.986 40.1565 258.79 40.14C258.593 40.1235 258.41 40.0364 258.272 39.8947L254.315 35.7576C251.871 33.2084 248.937 31.1788 245.689 29.7907C242.442 28.4026 238.948 27.6844 235.416 27.6792C228.532 27.6789 221.926 30.3975 217.035 35.2434C212.145 40.0893 209.367 46.6703 209.304 53.5546L209.247 58.8423C209.251 59.0332 209.188 59.2194 209.068 59.3685C208.949 59.5176 208.781 59.6201 208.594 59.6583L203.413 60.7027C196.058 62.1818 189.216 65.5517 183.56 70.4803C177.904 75.4089 173.63 81.7261 171.159 88.8094C168.688 95.8927 168.106 103.498 169.469 110.875C170.832 118.252 174.094 125.146 178.933 130.879L181.829 134.314C181.936 134.441 182.002 134.596 182.018 134.761C182.034 134.926 181.999 135.091 181.919 135.236L179.749 139.169C178.627 141.188 177.735 143.326 177.088 145.542C175.596 150.716 175.491 156.191 176.785 161.417C178.079 166.644 180.726 171.438 184.459 175.317C188.193 179.197 192.883 182.025 198.056 183.517C203.229 185.01 208.704 185.115 213.931 183.821L218.207 182.76C218.364 182.721 218.53 182.729 218.682 182.784C218.835 182.84 218.968 182.939 219.064 183.07L221.65 186.636C229.321 197.23 240.748 204.495 253.596 206.944C266.445 209.394 279.743 206.843 290.774 199.814L297.244 195.734C297.364 195.647 297.505 195.593 297.652 195.579Z" fill="white"/>
<path d="M248.218 119.291L226.349 115.872L226.684 113.685C227.067 110.598 227.972 107.599 229.36 104.815C230.579 102.612 232.194 100.653 234.126 99.0381C236.09 97.4061 240.366 94.6154 246.953 90.6659C250.454 88.6096 252.372 86.537 252.665 84.4235C252.859 83.5258 252.861 82.5974 252.671 81.6989C252.481 80.8004 252.104 79.952 251.564 79.2093C250.503 77.8466 248.7 76.9653 246.17 76.5736C244.924 76.337 243.642 76.3599 242.406 76.6407C241.169 76.9214 240.003 77.4542 238.981 78.2056C236.914 79.7343 235.282 82.7045 234.085 87.1163L212.184 80.8739C214.229 72.7847 218.244 66.6402 224.228 62.4405C230.212 58.2408 238.573 56.9787 249.312 58.6543C257.678 59.9544 264.16 62.7506 268.757 67.0427C275.002 72.8527 277.513 79.6907 276.289 87.557C275.74 90.8724 274.299 93.9757 272.119 96.533C269.845 99.2856 265.583 102.414 259.332 105.917C254.98 108.392 252.151 110.478 250.846 112.176C249.386 114.289 248.482 116.736 248.218 119.291ZM224.693 121.584L248.12 125.232L244.905 145.893L221.478 142.245L224.693 121.584Z" fill="white"/>
<path d="M304.034 151.302L291.892 141.51L292.879 140.294C294.208 138.548 295.821 137.039 297.653 135.831C299.178 134.922 300.857 134.3 302.606 133.995C306.192 133.577 309.8 133.389 313.41 133.432C316.271 133.432 318.175 132.842 319.122 131.661C319.562 131.184 319.895 130.618 320.097 130.002C320.3 129.385 320.368 128.732 320.297 128.087C319.992 126.653 319.148 125.391 317.939 124.562C317.261 123.977 316.47 123.538 315.615 123.274C314.759 123.01 313.859 122.926 312.969 123.028C311.163 123.224 309.115 124.456 306.825 126.724L295.67 115.145C299.783 110.935 304.407 108.609 309.542 108.169C314.677 107.728 320.232 109.923 326.205 114.754C330.85 118.513 333.813 122.519 335.091 126.773C336.843 132.534 335.953 137.596 332.423 141.959C330.92 143.797 328.946 145.191 326.711 145.99C324.344 146.855 320.634 147.252 315.58 147.181C312.047 147.181 309.583 147.41 308.179 147.997C306.547 148.742 305.124 149.877 304.034 151.302ZM288.865 144.358L301.872 154.893L292.577 166.366L279.57 155.856L288.865 144.358Z" fill="white"/>
<path d="M307.428 80.6203L302.173 73.4395L302.891 72.9091C303.874 72.1454 304.977 71.5499 306.155 71.1465C307.127 70.8666 308.142 70.7697 309.149 70.8609C311.182 71.1462 313.194 71.566 315.172 72.1176C316.755 72.5256 317.889 72.4766 318.582 71.9707C318.892 71.7705 319.157 71.5071 319.358 71.1978C319.559 70.8884 319.692 70.54 319.749 70.1755C319.781 69.3373 319.489 68.5192 318.933 67.8907C318.644 67.4717 318.271 67.1166 317.839 66.8471C317.407 66.5777 316.924 66.3996 316.42 66.324C315.4 66.1771 314.094 66.5525 312.503 67.4664L308.04 59.4777C310.601 57.8204 313.685 57.1693 316.697 57.6499C319.592 58.1558 322.331 60.1686 324.915 63.6883C326.922 66.4409 327.972 69.0766 328.064 71.5953C328.195 73.1304 327.924 74.6729 327.279 76.0718C326.634 77.4708 325.636 78.6782 324.384 79.5758C323.3 80.3637 322.023 80.8431 320.688 80.963C318.549 81.0052 316.418 80.6823 314.388 80.0083C313.039 79.5486 311.619 79.3331 310.194 79.3718C309.183 79.5524 308.232 79.9814 307.428 80.6203ZM300.084 74.5982L305.714 82.2849L298.933 87.2462L293.303 79.5677L300.084 74.5982Z" fill="white"/>
<path d="M104.725 182.434C97.8277 182.422 91.0615 180.547 85.1413 177.008C76.8589 172.112 71.0082 164.425 69.0172 155.963C63.2428 155.561 57.8149 153.06 53.7566 148.933C49.6983 144.805 47.2899 139.336 46.9852 133.556C45.2468 132.349 43.7101 130.876 42.4319 129.19C39.3271 125.234 37.7931 120.27 38.1244 115.252C38.4558 110.234 40.6291 105.515 44.2271 102.001C42.8617 96.1987 43.0055 90.1436 44.6447 84.4128C46.284 78.682 49.364 73.4667 53.591 69.2642C57.818 65.0617 63.0512 62.0121 68.7914 60.4063C74.5317 58.8005 80.5876 58.692 86.3816 60.0911C87.6457 57.2038 89.6394 54.6951 92.1667 52.8117C94.6939 50.9282 97.6678 49.7348 100.796 49.3487C103.924 48.9626 107.099 49.3972 110.008 50.6096C112.918 51.8221 115.461 53.7708 117.39 56.2641C118.285 57.4214 119.038 58.6815 119.634 60.0177C124.196 59.2679 128.874 59.6998 133.222 61.2719C137.57 62.8441 141.443 65.5042 144.471 68.9985C147.499 72.4927 149.58 76.7045 150.518 81.232C151.455 85.7595 151.217 90.4517 149.826 94.8609C152.813 97.4056 155.008 100.753 156.152 104.507C157.295 108.261 157.339 112.264 156.278 116.042C155.216 119.82 153.095 123.215 150.164 125.824C147.233 128.433 143.615 130.148 139.74 130.765C137.992 137.379 134.108 143.231 128.691 147.411C125.282 150.058 121.364 151.973 117.182 153.037C112.999 154.102 108.642 154.292 104.383 153.597C104.301 161.52 106.137 172.267 114.991 179.953C115.076 180.03 115.14 180.127 115.176 180.236C115.212 180.345 115.218 180.461 115.195 180.574C115.17 180.686 115.116 180.79 115.036 180.873C114.957 180.956 114.857 181.017 114.746 181.047C111.488 181.979 108.114 182.446 104.725 182.434ZM78.1156 60.3849C73.0232 60.4004 68.0008 61.572 63.4272 63.8114C58.8536 66.0507 54.8482 69.2993 51.713 73.3122C48.5778 77.3251 46.3947 81.9975 45.3284 86.977C44.262 91.9565 44.3402 97.1131 45.5572 102.058C45.5852 102.169 45.5825 102.285 45.5494 102.394C45.5164 102.503 45.4541 102.602 45.3695 102.678C41.885 105.948 39.7507 110.404 39.3868 115.169C39.0228 119.933 40.4555 124.662 43.4029 128.423C44.6991 130.088 46.2593 131.53 48.0215 132.691C48.1069 132.746 48.178 132.82 48.2291 132.908C48.2801 132.996 48.3096 133.095 48.3152 133.197C48.5364 138.794 50.8437 144.106 54.7834 148.088C58.7232 152.07 64.0102 154.434 69.6047 154.714C69.7447 154.722 69.8781 154.776 69.9844 154.868C70.0906 154.959 70.1637 155.083 70.1922 155.22C71.9956 163.519 77.6994 171.059 85.8268 175.906C94.0616 180.872 103.926 182.38 113.269 180.1C104.513 171.94 102.881 160.794 103.093 152.797C103.097 152.704 103.12 152.613 103.161 152.53C103.202 152.447 103.261 152.374 103.333 152.315C103.404 152.257 103.488 152.214 103.577 152.19C103.667 152.166 103.761 152.162 103.852 152.177C111.375 153.599 119.156 152.098 125.61 147.98C132.064 143.861 136.703 137.436 138.581 130.014C138.61 129.889 138.676 129.776 138.771 129.69C138.866 129.604 138.985 129.549 139.112 129.533C142.823 129.02 146.305 127.434 149.128 124.971C151.952 122.509 153.996 119.275 155.009 115.668C156.021 112.06 155.959 108.235 154.83 104.663C153.7 101.09 151.553 97.9244 148.651 95.5545C148.55 95.4732 148.477 95.3633 148.441 95.2395C148.404 95.1156 148.406 94.9835 148.447 94.8609C149.866 90.6085 150.152 86.0594 149.276 81.6627C148.401 77.266 146.393 73.1737 143.453 69.7899C140.512 66.406 136.74 63.8475 132.508 62.367C128.277 60.8865 123.732 60.5352 119.324 61.3477C119.179 61.3757 119.029 61.3528 118.9 61.2829C118.771 61.2129 118.669 61.1003 118.614 60.9642C117.335 57.8636 115.163 55.2138 112.373 53.3529C109.582 51.4921 106.301 50.5043 102.948 50.5157C99.5938 50.5271 96.3194 51.5371 93.5419 53.4168C90.7645 55.2966 88.6098 57.961 87.3527 61.0703C87.2931 61.2127 87.185 61.3293 87.0475 61.3995C86.9101 61.4697 86.7522 61.489 86.602 61.4538C83.8293 60.7422 80.978 60.3831 78.1156 60.3849Z" fill="#E6E6E6"/>
<path d="M82.0805 114.239L70.8116 116.891L70.5505 115.765C70.1239 114.193 69.972 112.558 70.1017 110.934C70.2564 109.63 70.652 108.365 71.2685 107.205C72.6483 104.914 74.1747 102.714 75.8381 100.62C77.1356 98.9309 77.6578 97.5518 77.3967 96.4665C77.3166 95.9928 77.136 95.5416 76.8672 95.1433C76.5984 94.745 76.2475 94.4088 75.8381 94.1573C74.8614 93.6815 73.7384 93.6026 72.7047 93.9369C72.0545 94.0685 71.4385 94.3328 70.8952 94.7133C70.3518 95.0938 69.8928 95.5823 69.5468 96.1483C68.845 97.2989 68.641 99.0533 68.9266 101.428L57.1191 102.684C56.4292 98.7811 57.2019 94.7605 59.2897 91.391C61.3623 88.176 65.1703 85.9184 70.7137 84.6182C75.0221 83.6009 78.7132 83.6798 81.7868 84.8549C85.9538 86.4379 88.5161 89.2585 89.4735 93.3168C89.8715 95.0362 89.7868 96.8322 89.2287 98.5065C88.6847 100.285 87.2349 102.641 84.8794 105.573C83.2474 107.629 82.2873 109.196 81.9989 110.273C81.6937 111.581 81.7218 112.945 82.0805 114.239ZM71.1298 119.951L83.2066 117.111L85.6791 127.752L73.6431 130.559L71.1298 119.951Z" fill="#FCE9D1"/>
<path d="M110.772 90.4033L102.954 88.0206L103.191 87.2046C103.49 86.0945 103.976 85.0433 104.627 84.0956C105.185 83.3534 105.877 82.7223 106.667 82.2352C108.322 81.338 110.034 80.5502 111.792 79.8769C113.179 79.3329 113.995 78.672 114.24 77.894C114.359 77.5759 114.41 77.2358 114.387 76.8966C114.365 76.5574 114.27 76.227 114.109 75.9275C113.679 75.292 113.022 74.8453 112.273 74.679C111.829 74.531 111.36 74.4757 110.894 74.5164C110.428 74.5571 109.975 74.693 109.564 74.9156C108.504 75.6425 107.713 76.6977 107.312 77.9185L99.625 74.4995C100.596 71.8727 102.502 69.6965 104.978 68.3876C107.382 67.1528 110.505 67.1228 114.346 68.2979C116.933 68.949 119.261 70.372 121.021 72.3779C121.966 73.4297 122.62 74.7106 122.918 76.0933C123.216 77.4761 123.147 78.9126 122.718 80.2604C122.349 81.4514 121.66 82.5183 120.727 83.3449C119.173 84.5527 117.427 85.4905 115.561 86.1193C114.321 86.5302 113.161 87.1542 112.134 87.9635C111.485 88.6514 111.017 89.4897 110.772 90.4033ZM102.057 90.0198L110.429 92.5657L108.185 99.9587L99.8045 97.4128L102.057 90.0198Z" fill="#FCE9D1"/>
<path d="M203.999 348.887C291.379 348.887 362.214 344.751 362.214 339.65C362.214 334.548 291.379 330.413 203.999 330.413C116.62 330.413 45.7852 334.548 45.7852 339.65C45.7852 344.751 116.62 348.887 203.999 348.887Z" fill="#F5F5F5"/>
<path d="M128.61 201.912L127.86 201.594C128.45 200.298 128.848 198.924 129.043 197.514L129.859 197.603C129.654 199.093 129.234 200.544 128.61 201.912ZM128.292 192.577C127.533 190.881 126.352 189.408 124.862 188.298C123.373 187.188 121.623 186.478 119.781 186.236L119.912 185.42C121.888 185.683 123.763 186.447 125.36 187.64C126.957 188.833 128.222 190.414 129.035 192.234L128.292 192.577Z" fill="#850DCE"/>
<path d="M124.033 210.12L115.987 213.792L115.628 212.976C115.078 211.867 114.722 210.672 114.576 209.443C114.498 208.442 114.606 207.435 114.894 206.473C115.59 204.557 116.408 202.687 117.342 200.875C118.06 199.422 118.242 198.31 117.889 197.537C117.757 197.196 117.555 196.886 117.295 196.628C117.034 196.371 116.722 196.172 116.379 196.044C115.578 195.841 114.729 195.948 114.004 196.346C113.539 196.544 113.118 196.835 112.769 197.202C112.42 197.568 112.149 198.001 111.973 198.476C111.619 199.428 111.728 200.772 112.299 202.507L103.633 205.216C102.549 202.392 102.549 199.268 103.633 196.444C104.721 193.724 107.229 191.475 111.157 189.696C114.225 188.292 116.999 187.811 119.472 188.227C120.987 188.41 122.428 188.984 123.654 189.892C124.88 190.801 125.849 192.012 126.465 193.409C127.016 194.636 127.219 195.991 127.052 197.325C126.658 199.41 125.913 201.414 124.849 203.249C124.134 204.466 123.642 205.801 123.397 207.191C123.362 208.205 123.581 209.212 124.033 210.12ZM116.689 216.028L125.29 212.16L128.741 219.741L120.141 223.584L116.689 216.028Z" fill="#850DCE"/>
<path d="M104.155 228.261L100.075 233.809L99.5525 233.377C98.7567 232.825 98.0589 232.144 97.488 231.361C97.0544 230.709 96.7472 229.981 96.5822 229.215C96.3186 227.647 96.1632 226.063 96.1171 224.474C96.0518 223.209 95.7499 222.385 95.2195 222.026C94.9966 221.837 94.735 221.699 94.4531 221.621C94.1712 221.544 93.8758 221.529 93.5875 221.577C92.9631 221.741 92.4255 222.138 92.0861 222.687C91.843 222.998 91.6663 223.355 91.5666 223.737C91.467 224.119 91.4466 224.517 91.5067 224.907C91.7901 225.95 92.406 226.873 93.2611 227.534L88.3651 232.683C86.5522 231.171 85.3585 229.045 85.0113 226.71C84.7121 224.458 85.5662 221.969 87.5736 219.244C88.8185 217.376 90.5991 215.928 92.6817 215.09C93.7833 214.635 94.9846 214.476 96.1667 214.627C97.3489 214.779 98.4709 215.237 99.4219 215.955C100.266 216.581 100.921 217.429 101.315 218.403C101.839 219.981 102.093 221.637 102.066 223.299C102.038 224.409 102.209 225.514 102.572 226.563C102.949 227.252 103.493 227.836 104.155 228.261ZM101.405 235.082L105.779 229.142L111.017 233.001L106.644 238.942L101.405 235.082Z" fill="#850DCE"/>
<path d="M191.017 336.715C190.344 336.716 189.683 336.531 189.107 336.181C188.532 335.831 188.063 335.33 187.753 334.732C184.489 328.4 180.352 320.966 172.943 312.92C172.516 312.459 172.217 311.894 172.074 311.282C171.931 310.67 171.949 310.031 172.127 309.428C174.877 299.872 179.202 286.808 179.243 286.678C179.381 286.206 179.613 285.766 179.924 285.386C180.236 285.005 180.621 284.691 181.057 284.463C181.492 284.234 181.969 284.096 182.46 284.056C182.95 284.016 183.443 284.074 183.91 284.229C184.377 284.384 184.808 284.631 185.177 284.955C185.547 285.28 185.847 285.676 186.06 286.119C186.274 286.562 186.395 287.044 186.419 287.535C186.442 288.027 186.366 288.518 186.195 288.979C186.154 289.101 182.425 300.354 179.724 309.501C185.482 316.142 190.369 323.491 194.265 331.37C194.551 331.929 194.689 332.553 194.666 333.181C194.642 333.809 194.458 334.42 194.13 334.957C193.803 335.493 193.343 335.936 192.795 336.244C192.247 336.552 191.63 336.714 191.001 336.715H191.017Z" fill="#BD60F5"/>
<path d="M197.113 339.653H168.725L183.772 331.117L196.379 331.607L197.113 339.653Z" fill="#030303"/>
<path d="M194.404 305.259C207.325 301.22 215.086 289.262 211.737 278.552C208.389 267.842 195.2 262.434 182.279 266.473C169.358 270.513 161.597 282.47 164.945 293.18C168.294 303.89 181.483 309.298 194.404 305.259Z" fill="#030303"/>
<path d="M123.747 272.546C122.902 272.542 122.084 272.247 121.432 271.71C120.78 271.173 120.333 270.426 120.168 269.598C120.003 268.769 120.129 267.909 120.526 267.163C120.922 266.417 121.564 265.83 122.343 265.503C122.978 265.238 123.534 264.817 123.962 264.28C124.39 263.742 124.675 263.105 124.791 262.427C124.865 261.63 125.197 260.879 125.738 260.29C126.279 259.7 126.999 259.304 127.786 259.163C128.695 258.978 129.594 258.746 130.479 258.47C135.44 257.025 141.585 255.206 160.924 260.64C180.002 249.975 180.222 229.967 180.222 229.102C180.222 228.132 180.606 227.202 181.289 226.514C181.972 225.826 182.9 225.436 183.87 225.43C184.836 225.43 185.763 225.811 186.449 226.491C187.135 227.171 187.525 228.095 187.534 229.061C187.534 230.13 187.419 255.246 163.054 267.821C162.223 268.252 161.259 268.345 160.361 268.082C141.919 262.762 136.697 264.279 132.56 265.495L131.434 265.822C130.889 267.264 130.055 268.579 128.983 269.686C127.911 270.793 126.623 271.669 125.199 272.26C124.74 272.453 124.245 272.55 123.747 272.546Z" fill="#030303"/>
<path d="M166.53 246.343C159.586 218.745 141.087 147.558 200.369 143.208C253.556 139.3 268.146 210.12 271.696 234.6C273.473 246.987 274.438 259.477 274.585 271.989C274.652 278.319 272.508 284.473 268.521 289.39C264.534 294.306 258.955 297.676 252.748 298.917C223.772 304.809 196.355 305.641 177.88 298.354C175.454 297.375 173.409 295.637 172.052 293.4C170.694 291.163 170.097 288.547 170.349 285.943C171.059 278.044 171.075 264.384 166.53 246.343Z" fill="#BD60F5"/>
<path opacity="0.1" d="M271.728 234.616C268.383 211.507 255.229 147.304 209.174 143.224C206.547 142.958 203.9 143.475 201.566 144.711C199.232 145.946 197.317 147.845 196.061 150.168C194.004 154.15 194.07 158.973 197.146 163.746C207.264 179.52 231.475 233.922 227.819 263.568C226.187 277.056 217.693 287.827 225.053 302.989C234.357 302.174 243.605 300.812 252.748 298.909C258.955 297.667 264.534 294.297 268.521 289.381C272.507 284.464 274.652 278.31 274.584 271.981C274.448 259.477 273.494 246.995 271.728 234.616Z" fill="#474747"/>
<path d="M263.765 272.373C263.669 272.373 263.577 272.336 263.509 272.269C263.44 272.202 263.4 272.11 263.398 272.014C263.259 259.518 262.297 247.044 260.518 234.674C251.705 173.752 227.984 142.948 191.892 145.608C191.844 145.611 191.795 145.605 191.75 145.589C191.704 145.574 191.661 145.55 191.625 145.518C191.589 145.486 191.559 145.447 191.538 145.404C191.516 145.361 191.504 145.313 191.5 145.265C191.496 145.168 191.529 145.073 191.593 145C191.657 144.927 191.746 144.882 191.843 144.873C228.359 142.181 252.366 173.205 261.203 234.568C262.981 246.971 263.946 259.477 264.092 272.006C264.092 272.104 264.053 272.197 263.984 272.266C263.915 272.335 263.822 272.373 263.725 272.373H263.765Z" fill="#030303"/>
<path d="M263.211 307.204C276.132 303.165 283.892 291.208 280.544 280.497C277.196 269.787 264.007 264.379 251.086 268.418C238.164 272.458 230.404 284.415 233.752 295.125C237.1 305.836 250.289 311.244 263.211 307.204Z" fill="#030303"/>
<path d="M265.445 336.715C264.771 336.716 264.11 336.532 263.534 336.182C262.958 335.832 262.49 335.331 262.181 334.732C258.917 328.4 254.779 320.966 247.362 312.92C246.939 312.456 246.641 311.892 246.499 311.28C246.356 310.669 246.372 310.031 246.546 309.428C249.304 299.872 253.621 286.808 253.67 286.678C253.821 286.222 254.06 285.8 254.374 285.436C254.688 285.073 255.071 284.775 255.5 284.559C255.929 284.344 256.397 284.215 256.876 284.18C257.355 284.145 257.836 284.205 258.292 284.356C258.748 284.507 259.17 284.747 259.533 285.061C259.897 285.375 260.195 285.757 260.411 286.187C260.626 286.616 260.755 287.083 260.79 287.562C260.825 288.042 260.765 288.523 260.614 288.979C260.573 289.101 256.852 300.354 254.151 309.501C259.91 316.14 264.794 323.489 268.684 331.37C268.97 331.929 269.108 332.553 269.085 333.181C269.061 333.809 268.877 334.42 268.549 334.957C268.222 335.493 267.762 335.936 267.214 336.244C266.666 336.552 266.049 336.714 265.42 336.715H265.445Z" fill="#BD60F5"/>
<path d="M257.759 225.143C256.941 225.144 256.146 224.87 255.501 224.366C254.856 223.862 254.398 223.157 254.201 222.362C254.004 221.568 254.079 220.73 254.413 219.983C254.747 219.236 255.322 218.622 256.046 218.24C256.747 217.865 272.684 209.158 277.156 188.236C266.548 183.797 247.437 173.768 243.259 168.725C242.848 168.238 242.567 167.654 242.443 167.028C241.96 164.015 242.241 160.929 243.259 158.052L241.333 154.331C240.887 153.465 240.804 152.458 241.101 151.531C241.397 150.603 242.051 149.832 242.916 149.386C243.782 148.94 244.789 148.856 245.717 149.153C246.644 149.45 247.415 150.103 247.861 150.969L250.627 156.322C250.925 156.882 251.071 157.51 251.051 158.145C251.031 158.779 250.846 159.397 250.513 159.937C249.766 161.428 249.45 163.098 249.599 164.759C254.308 169.011 273.263 179.072 282.59 182.524C283.381 182.817 284.046 183.374 284.473 184.101C284.9 184.828 285.062 185.681 284.932 186.514C280.795 213.254 260.338 224.27 259.473 224.727C258.944 225.004 258.356 225.147 257.759 225.143Z" fill="#030303"/>
<path d="M246.081 168.219C245.752 168.218 245.429 168.128 245.147 167.958C244.864 167.789 244.632 167.547 244.476 167.258C244.319 166.968 244.243 166.642 244.255 166.313C244.268 165.984 244.369 165.664 244.547 165.388C244.678 165.192 247.697 160.63 252.299 159.398C252.531 159.336 252.773 159.32 253.011 159.352C253.249 159.383 253.479 159.461 253.687 159.581C253.895 159.701 254.077 159.861 254.224 160.052C254.37 160.242 254.477 160.46 254.539 160.692C254.601 160.924 254.617 161.166 254.586 161.404C254.554 161.642 254.476 161.871 254.356 162.079C254.236 162.287 254.076 162.47 253.886 162.616C253.695 162.762 253.478 162.869 253.246 162.932C250.039 163.796 247.632 167.354 247.615 167.387C247.449 167.643 247.222 167.853 246.954 167.998C246.686 168.143 246.386 168.219 246.081 168.219Z" fill="#030303"/>
<path d="M271.541 339.653H243.152L258.199 331.117L270.807 331.607L271.541 339.653Z" fill="#030303"/>
<path d="M212.092 230.32C222.83 229.369 230.841 220.763 229.986 211.098C229.13 201.433 219.731 194.369 208.993 195.319C198.256 196.27 190.245 204.876 191.1 214.541C191.956 224.206 201.355 231.27 212.092 230.32Z" fill="white"/>
<path d="M208.447 223.948C211.294 223.137 212.406 218.277 210.929 213.094C209.452 207.91 205.947 204.365 203.099 205.176C200.252 205.987 199.14 210.847 200.617 216.031C202.094 221.215 205.599 224.759 208.447 223.948Z" fill="#030303"/>
<path d="M188.334 216.127C200.655 214.544 225.054 207.584 229.077 204.777C225.91 195.507 211.125 187.575 197.971 192.047C186.049 196.07 188.334 216.127 188.334 216.127Z" fill="#030303"/>
<path d="M190.725 222.083C206.025 219.178 225.911 214.298 231.598 211.173C231.247 221.144 228.334 231.255 212.732 234.674C199.97 237.456 190.725 222.083 190.725 222.083Z" fill="#030303"/>
<path d="M178.122 231.667C183.655 228.007 184.384 219.363 179.751 212.361C175.119 205.359 166.878 202.65 161.346 206.311C155.813 209.971 155.084 218.615 159.716 225.617C164.349 232.619 172.59 235.328 178.122 231.667Z" fill="white"/>
<path d="M170.007 219.242C170.929 223.616 170.129 227.264 168.211 227.402C166.294 227.541 163.993 224.09 163.062 219.716C162.132 215.342 162.94 211.703 164.849 211.556C166.759 211.409 169.076 214.869 170.007 219.242Z" fill="#030303"/>
<path d="M154.837 217.57C163.103 218.541 179.521 217.455 182.246 215.938C180.231 208.079 170.455 199.103 161.569 200.246C153.556 201.274 154.837 217.57 154.837 217.57Z" fill="#030303"/>
<path d="M156.371 222.72C166.645 223.185 180.035 222.924 183.854 221.479C183.503 229.321 181.447 236.796 170.953 236.673C162.385 236.575 156.371 222.72 156.371 222.72Z" fill="#030303"/>
<path d="M215.498 187.109C206.16 187.16 197.028 184.371 189.312 179.112C188.539 178.527 188.029 177.658 187.896 176.697C187.763 175.736 188.017 174.762 188.602 173.988C189.188 173.214 190.056 172.705 191.018 172.572C191.979 172.439 192.953 172.693 193.727 173.278C202.363 178.91 212.84 180.989 222.972 179.08C223.444 178.99 223.929 178.995 224.4 179.093C224.87 179.191 225.316 179.38 225.713 179.651C226.111 179.921 226.45 180.267 226.714 180.669C226.977 181.071 227.159 181.521 227.248 181.993C227.338 182.465 227.333 182.95 227.235 183.42C227.137 183.891 226.948 184.337 226.677 184.734C226.407 185.131 226.06 185.471 225.659 185.734C225.257 185.998 224.807 186.179 224.335 186.269C221.422 186.823 218.463 187.105 215.498 187.109Z" fill="#030303"/>
<path d="M150.046 180.802C149.46 180.799 148.884 180.655 148.364 180.384C147.845 180.113 147.398 179.721 147.061 179.242C146.724 178.763 146.507 178.21 146.427 177.629C146.347 177.049 146.407 176.458 146.603 175.906C148.537 170.504 151.76 167.003 156.166 165.485C164.147 162.735 172.747 168.08 173.114 168.309C173.916 168.835 174.479 169.655 174.683 170.592C174.886 171.53 174.714 172.509 174.204 173.321C173.693 174.133 172.885 174.712 171.952 174.935C171.019 175.157 170.036 175.004 169.214 174.51C167.582 173.474 162.384 171.075 158.524 172.413C156.305 173.188 154.657 175.138 153.49 178.386C153.233 179.094 152.765 179.705 152.149 180.137C151.533 180.569 150.799 180.801 150.046 180.802Z" fill="#030303"/>
<path d="M178.892 242.558C178.789 242.558 178.687 242.541 178.59 242.509C178.313 242.431 178.078 242.246 177.938 241.995C177.797 241.744 177.761 241.448 177.839 241.171C178.164 240.288 178.659 239.478 179.298 238.788C179.937 238.097 180.705 237.54 181.56 237.148C185.754 234.986 192.168 235.434 200.581 238.478C200.717 238.527 200.842 238.603 200.949 238.701C201.055 238.798 201.142 238.916 201.202 239.048C201.263 239.179 201.297 239.321 201.303 239.465C201.308 239.61 201.285 239.754 201.234 239.89C201.186 240.025 201.111 240.15 201.014 240.257C200.917 240.363 200.8 240.45 200.669 240.51C200.538 240.571 200.397 240.605 200.253 240.611C200.109 240.616 199.965 240.593 199.83 240.542C190.177 237.05 185.142 237.801 182.694 239.057C181.472 239.576 180.5 240.551 179.985 241.775C179.915 242.008 179.77 242.211 179.572 242.353C179.374 242.494 179.135 242.567 178.892 242.558Z" fill="#030303"/>
<path d="M144.335 238.533C131.567 239.667 119.149 243.314 107.795 249.263C114.094 248.072 136.641 275.971 142.434 297.481C153.132 293.523 165.6 290.822 178.893 288.709C170.839 266.538 156.11 241.413 144.335 238.533Z" fill="#BD60F5"/>
<path opacity="0.6" d="M144.335 238.533C131.567 239.667 119.149 243.314 107.795 249.263C114.094 248.072 136.641 275.971 142.434 297.481C153.132 293.523 165.6 290.822 178.893 288.709C170.839 266.538 156.11 241.413 144.335 238.533Z" fill="white"/>
<path d="M144.335 238.534C130.397 236.959 107.77 248.628 107.77 248.628C103.763 251.182 104.848 255.972 107.035 258.004C109.132 254.993 132.519 247.159 141.307 246.107C136.942 242.059 141.005 239.089 144.335 238.534Z" fill="#BD60F5"/>
<path opacity="0.2" d="M144.335 238.534C130.397 236.959 107.77 248.628 107.77 248.628C103.763 251.182 104.848 255.972 107.035 258.004C109.132 254.993 132.519 247.159 141.307 246.107C136.942 242.059 141.005 239.089 144.335 238.534Z" fill="white"/>
<path d="M123.754 272.545C123.147 272.547 122.548 272.4 122.012 272.115C121.475 271.83 121.017 271.417 120.678 270.913C118.026 266.833 119.683 260.639 120.042 259.432C120.347 258.536 120.988 257.793 121.829 257.359C122.671 256.925 123.647 256.834 124.554 257.104C125.462 257.374 126.229 257.985 126.696 258.808C127.163 259.631 127.293 260.604 127.059 261.521C126.464 263.569 126.341 266.188 126.814 266.906C127.344 267.72 127.529 268.711 127.329 269.661C127.128 270.611 126.559 271.443 125.746 271.974C125.153 272.356 124.46 272.555 123.754 272.545Z" fill="#030303"/>
<path d="M111.245 112.557H98.8906V106.983L111.245 92.2954H117.153V107.302H120.213V112.557H117.153V117.118H111.245V112.557ZM111.245 107.302V99.6231L104.717 107.302H111.245Z" fill="#850DCE"/>
<path d="M122.327 104.821C122.327 100.186 123.162 96.9414 124.832 95.0864C126.502 93.2313 129.045 92.3038 132.462 92.3038C133.847 92.2571 135.23 92.4645 136.542 92.9158C137.499 93.2604 138.376 93.7962 139.12 94.4907C139.745 95.0903 140.276 95.7808 140.695 96.5389C141.104 97.3327 141.414 98.1741 141.617 99.044C142.078 100.913 142.305 102.831 142.294 104.756C142.294 109.179 141.546 112.418 140.05 114.475C138.554 116.531 135.965 117.54 132.282 117.502C130.569 117.573 128.863 117.237 127.304 116.523C126.028 115.857 124.952 114.862 124.187 113.642C123.509 112.507 123.045 111.257 122.816 109.954C122.478 108.264 122.314 106.544 122.327 104.821ZM129.051 104.821C129.051 107.933 129.323 110.055 129.867 111.186C130.045 111.679 130.37 112.106 130.797 112.411C131.224 112.716 131.733 112.883 132.258 112.892C132.589 112.898 132.918 112.837 133.226 112.712C133.533 112.587 133.811 112.401 134.045 112.165C134.629 111.528 135.015 110.734 135.154 109.88C135.445 108.265 135.565 106.625 135.513 104.984C135.513 101.72 135.244 99.5662 134.697 98.4565C134.499 97.9712 134.159 97.5565 133.723 97.2657C133.287 96.9749 132.774 96.8212 132.249 96.8245C131.713 96.81 131.185 96.9677 130.745 97.2746C130.304 97.5815 129.974 98.0214 129.801 98.5299C129.306 99.656 129.056 101.759 129.051 104.838V104.821Z" fill="#850DCE"/>
<path d="M145.061 104.821C145.061 100.186 145.896 96.9414 147.566 95.0864C149.236 93.2313 151.779 92.3038 155.195 92.3038C156.581 92.2571 157.964 92.4645 159.275 92.9158C160.233 93.2604 161.11 93.7962 161.854 94.4907C162.481 95.0881 163.013 95.779 163.429 96.5389C163.838 97.3327 164.148 98.1741 164.351 99.044C164.814 100.912 165.045 102.831 165.036 104.756C165.036 109.179 164.286 112.418 162.784 114.475C161.283 116.531 158.701 117.54 155.04 117.502C153.327 117.573 151.621 117.237 150.063 116.523C148.787 115.859 147.713 114.864 146.954 113.642C146.269 112.509 145.802 111.258 145.575 109.954C145.229 108.265 145.056 106.545 145.061 104.821ZM151.784 104.821C151.784 107.933 152.056 110.055 152.6 111.186C152.779 111.679 153.103 112.106 153.53 112.411C153.957 112.716 154.467 112.883 154.991 112.892C155.323 112.898 155.652 112.837 155.959 112.712C156.267 112.587 156.545 112.401 156.778 112.165C157.363 111.527 157.751 110.734 157.896 109.88C158.182 108.265 158.303 106.624 158.255 104.984C158.255 101.72 157.983 99.5445 157.439 98.4565C157.239 97.9725 156.899 97.559 156.463 97.2685C156.027 96.9779 155.515 96.8234 154.991 96.8245C154.455 96.8113 153.928 96.9695 153.488 97.2763C153.048 97.583 152.717 98.0221 152.543 98.5299C152.032 99.656 151.776 101.759 151.776 104.838L151.784 104.821Z" fill="#850DCE"/>
<path d="M180.246 92.7192H200.45V97.9172H187.802V101.801H199.536V106.779H187.802V111.585H200.817V117.109H180.246V92.7192Z" fill="#030303"/>
<path d="M204.979 117.118V92.7199H217.545C219.347 92.6562 221.148 92.8597 222.89 93.3238C224.105 93.706 225.154 94.4883 225.868 95.5433C226.408 96.3182 226.783 97.1959 226.968 98.1219C227.154 99.0478 227.147 100.002 226.948 100.925C226.749 101.849 226.362 102.721 225.812 103.488C225.261 104.255 224.558 104.901 223.747 105.384C222.92 105.842 222.029 106.169 221.103 106.355C221.797 106.554 222.457 106.857 223.061 107.253C223.514 107.63 223.919 108.06 224.269 108.534C224.672 109.003 225.027 109.512 225.33 110.052L228.977 117.118H220.458L216.427 109.66C216.109 108.946 215.645 108.307 215.064 107.783C214.523 107.409 213.878 107.212 213.22 107.22H212.551V117.118H204.979ZM212.551 102.61H215.733C216.406 102.557 217.072 102.445 217.724 102.275C218.213 102.18 218.65 101.907 218.948 101.508C219.315 101.027 219.49 100.427 219.44 99.8246C219.39 99.2219 219.119 98.659 218.679 98.2442C217.832 97.7385 216.845 97.5183 215.864 97.6159H212.551V102.61Z" fill="#030303"/>
<path d="M231.49 117.119V92.7201H244.057C245.858 92.6557 247.66 92.8593 249.401 93.3239C250.616 93.7062 251.666 94.4885 252.38 95.5435C252.918 96.3186 253.291 97.196 253.476 98.1211C253.661 99.0463 253.654 99.9996 253.456 100.922C253.258 101.845 252.873 102.717 252.324 103.484C251.775 104.252 251.075 104.898 250.266 105.384C249.438 105.843 248.543 106.171 247.614 106.355C248.916 106.636 250.053 107.419 250.78 108.534C251.184 109.004 251.539 109.512 251.841 110.052L255.489 117.119H246.97L242.939 109.66C242.621 108.946 242.157 108.307 241.576 107.783C241.035 107.409 240.39 107.212 239.732 107.22H239.087V117.119H231.49ZM239.087 102.61H242.27C242.942 102.557 243.608 102.445 244.261 102.275C244.751 102.184 245.189 101.91 245.485 101.508C245.851 101.027 246.026 100.427 245.976 99.8248C245.926 99.2221 245.655 98.6591 245.215 98.2444C244.369 97.7365 243.382 97.5161 242.4 97.6161H239.087V102.61Z" fill="#030303"/>
<path d="M256.371 104.934C256.371 100.952 257.481 97.8515 259.7 95.632C261.92 93.4125 265.01 92.3027 268.97 92.3027C273.034 92.3027 276.164 93.3907 278.362 95.5667C280.56 97.7427 281.648 100.797 281.626 104.73C281.737 107.163 281.253 109.586 280.214 111.789C279.281 113.593 277.833 115.078 276.053 116.056C273.955 117.108 271.624 117.605 269.28 117.501C266.934 117.581 264.599 117.132 262.45 116.187C260.602 115.271 259.073 113.821 258.06 112.025C256.873 109.855 256.289 107.407 256.371 104.934ZM263.911 104.934C263.911 107.399 264.37 109.169 265.29 110.247C265.773 110.753 266.355 111.155 266.998 111.431C267.642 111.706 268.335 111.848 269.035 111.848C269.735 111.848 270.428 111.706 271.072 111.431C271.715 111.155 272.297 110.753 272.781 110.247C273.667 109.191 274.113 107.287 274.119 104.535C274.119 102.244 273.654 100.566 272.723 99.4999C272.252 98.9723 271.669 98.5565 271.017 98.2827C270.365 98.0088 269.66 97.8838 268.954 97.9168C268.26 97.8929 267.571 98.0275 266.937 98.3103C266.304 98.5931 265.743 99.0167 265.298 99.5488C264.384 100.699 263.911 102.486 263.911 104.967V104.934Z" fill="#030303"/>
<path d="M285.82 117.119V92.7201H298.379C300.18 92.6557 301.981 92.8593 303.723 93.3239C304.94 93.7038 305.99 94.4867 306.702 95.5435C307.485 96.7084 307.882 98.09 307.836 99.4929C307.869 100.719 307.57 101.931 306.971 103.002C306.392 103.985 305.572 104.805 304.588 105.384C303.762 105.842 302.87 106.169 301.944 106.355C302.639 106.555 303.299 106.857 303.903 107.253C304.353 107.632 304.759 108.062 305.111 108.534C305.512 109.003 305.865 109.512 306.163 110.052L309.819 117.119H301.3L297.269 109.66C296.948 108.948 296.484 108.309 295.906 107.783C295.362 107.409 294.715 107.212 294.054 107.22H293.393V117.119H285.82ZM293.393 102.61H296.567C297.242 102.557 297.911 102.445 298.566 102.275C299.055 102.181 299.492 101.907 299.79 101.508C300.105 101.106 300.272 100.608 300.264 100.097C300.284 99.7565 300.227 99.416 300.097 99.1009C299.967 98.7858 299.767 98.5041 299.513 98.2771C298.667 97.7692 297.679 97.5488 296.698 97.6487H293.393V102.61Z" fill="#030303"/>
<path d="M132.43 79.1516V60.9875H139.251C140.39 60.9443 141.526 61.1331 142.589 61.5424C143.408 61.8886 144.098 62.482 144.564 63.2396C145.025 63.9556 145.273 64.7873 145.282 65.6387C145.283 66.4161 145.062 67.1776 144.645 67.8337C144.173 68.5451 143.512 69.1104 142.736 69.4657C143.737 69.7194 144.628 70.2923 145.274 71.0977C145.866 71.8902 146.176 72.8583 146.155 73.8476C146.162 74.6703 145.978 75.4834 145.616 76.2222C145.314 76.8855 144.858 77.4673 144.286 77.9195C143.689 78.348 143.012 78.6532 142.295 78.8171C141.335 79.037 140.351 79.1384 139.366 79.119L132.43 79.1516ZM134.878 68.6089H138.811C139.581 68.6423 140.353 68.5709 141.104 68.3968C141.65 68.2585 142.135 67.9428 142.483 67.4992C142.805 67.0329 142.969 66.4747 142.948 65.908C142.971 65.3329 142.82 64.7644 142.515 64.276C142.234 63.8176 141.792 63.4803 141.275 63.3294C140.369 63.1206 139.438 63.0355 138.509 63.0764H134.878V68.6089ZM134.878 77.0056H139.406C139.952 77.0204 140.497 76.9931 141.038 76.924C141.528 76.8477 141.999 76.6788 142.426 76.4262C142.816 76.1754 143.134 75.8265 143.348 75.4144C143.593 74.9409 143.717 74.4136 143.707 73.8803C143.723 73.2524 143.54 72.6355 143.185 72.1177C142.839 71.6103 142.329 71.2383 141.74 71.0651C140.874 70.8274 139.977 70.7229 139.08 70.755H134.878V77.0056Z" fill="#030303"/>
<path d="M157.782 77.5188C157.073 78.1459 156.265 78.6505 155.391 79.0121C154.607 79.3014 153.778 79.4479 152.943 79.4446C151.739 79.5261 150.549 79.1469 149.614 78.3838C149.233 78.045 148.931 77.6269 148.73 77.1588C148.528 76.6907 148.431 76.1841 148.447 75.6746C148.441 75.0761 148.581 74.4852 148.856 73.9533C149.13 73.4214 149.53 72.9646 150.022 72.6228C150.52 72.2866 151.072 72.0382 151.654 71.8884C152.307 71.7351 152.969 71.6233 153.637 71.5538C154.986 71.4306 156.32 71.1737 157.619 70.7868C157.619 70.4767 157.619 70.289 157.619 70.1993C157.656 69.8533 157.62 69.5034 157.511 69.1727C157.403 68.8421 157.225 68.5383 156.99 68.2817C156.263 67.7254 155.357 67.4554 154.445 67.5228C153.631 67.4646 152.819 67.6584 152.119 68.0777C151.517 68.5827 151.107 69.2803 150.96 70.0524L148.781 69.7586C148.927 68.9367 149.263 68.1601 149.761 67.4902C150.294 66.8674 150.993 66.409 151.776 66.1682C152.74 65.8421 153.753 65.6847 154.771 65.7031C155.692 65.6762 156.612 65.8087 157.488 66.0948C158.083 66.2898 158.617 66.6356 159.039 67.0985C159.388 67.5416 159.626 68.0621 159.732 68.6162C159.827 69.2974 159.865 69.9851 159.846 70.6726V73.651C159.81 74.9636 159.856 76.2773 159.985 77.5841C160.083 78.1396 160.273 78.6747 160.548 79.1671H158.223C157.977 78.6488 157.828 78.0904 157.782 77.5188ZM157.594 72.533C156.414 72.9438 155.19 73.2176 153.947 73.349C153.282 73.4201 152.627 73.568 151.997 73.7897C151.64 73.9429 151.334 74.1949 151.115 74.5159C150.862 74.9154 150.759 75.3925 150.827 75.8609C150.894 76.3293 151.127 76.7581 151.482 77.07C152.05 77.5013 152.754 77.7128 153.465 77.6657C154.266 77.6773 155.056 77.4805 155.758 77.0945C156.4 76.7472 156.916 76.2079 157.235 75.5522C157.51 74.8402 157.632 74.0786 157.594 73.3164V72.533Z" fill="#030303"/>
<path d="M171.859 79.153V77.521C171.478 78.1494 170.934 78.6631 170.285 79.0078C169.635 79.3526 168.905 79.5155 168.171 79.4794C167.142 79.4829 166.137 79.1788 165.282 78.6063C164.379 78.0039 163.668 77.154 163.234 76.1583C162.729 75.0358 162.481 73.8147 162.508 72.5842C162.492 71.3592 162.714 70.1427 163.161 69.002C163.549 68.0011 164.239 67.1457 165.135 66.554C166.013 65.9985 167.035 65.7147 168.073 65.738C168.811 65.7226 169.541 65.8938 170.195 66.2357C170.793 66.5532 171.312 67.0024 171.712 67.5495V61.0215H173.932V79.153H171.859ZM164.833 72.625C164.732 73.9711 165.111 75.3096 165.902 76.4031C166.198 76.79 166.578 77.1044 167.014 77.3222C167.449 77.5399 167.929 77.6554 168.416 77.6597C168.894 77.6615 169.367 77.5544 169.798 77.3466C170.229 77.1388 170.608 76.8357 170.904 76.4602C171.666 75.4035 172.027 74.1109 171.924 72.8127C172.038 71.409 171.673 70.0081 170.888 68.8388C170.587 68.4436 170.198 68.1237 169.752 67.9043C169.306 67.6848 168.815 67.5717 168.318 67.574C167.844 67.5773 167.378 67.6886 166.953 67.8993C166.529 68.1099 166.159 68.4145 165.87 68.7898C165.101 69.9145 164.736 71.2662 164.833 72.625Z" fill="#030303"/>
<path d="M184.816 79.1522V60.988H192.878C194.13 60.9339 195.381 61.0996 196.575 61.4776C197.424 61.8118 198.136 62.4209 198.599 63.2076C199.104 64.0319 199.368 64.9822 199.358 65.9493C199.373 66.5492 199.269 67.1463 199.054 67.7063C198.838 68.2663 198.514 68.7784 198.101 69.2133C197.036 70.2048 195.661 70.7985 194.209 70.8943C194.741 71.1295 195.238 71.4371 195.686 71.8082C196.454 72.5356 197.125 73.3583 197.685 74.2562L200.843 79.1522H197.815L195.408 75.3741C194.706 74.2807 194.127 73.4484 193.678 72.869C193.337 72.4012 192.924 71.9908 192.454 71.6532C192.117 71.4301 191.744 71.2647 191.353 71.1636C190.91 71.0956 190.462 71.0683 190.014 71.082H187.224V79.1522H184.816ZM187.224 68.993H192.397C193.269 69.0278 194.141 68.9146 194.976 68.6584C195.556 68.4594 196.055 68.0752 196.395 67.565C196.711 67.0794 196.879 66.5122 196.877 65.933C196.887 65.5319 196.809 65.1336 196.646 64.7667C196.484 64.3998 196.242 64.0735 195.938 63.8114C195.084 63.1921 194.035 62.9022 192.985 62.9954H187.224V68.993Z" fill="#030303"/>
<path d="M211.859 74.9342L214.168 75.2116C213.873 76.451 213.165 77.5531 212.161 78.3369C210.891 79.1668 209.382 79.5521 207.87 79.4325C206.358 79.3129 204.928 78.6951 203.805 77.676C202.611 76.2959 202.005 74.5034 202.116 72.682C201.998 70.806 202.612 68.9574 203.829 67.5249C204.394 66.9184 205.083 66.4405 205.849 66.1237C206.615 65.8069 207.44 65.6586 208.268 65.6889C209.075 65.662 209.877 65.8084 210.622 66.1181C211.366 66.4278 212.036 66.8936 212.585 67.4841C213.771 68.8936 214.37 70.7048 214.258 72.5433C214.258 72.6739 214.258 72.8779 214.258 73.139H204.466C204.444 74.355 204.858 75.5387 205.633 76.4764C205.983 76.8529 206.41 77.1509 206.884 77.3506C207.358 77.5503 207.868 77.6473 208.383 77.6352C209.134 77.6583 209.871 77.4316 210.48 76.9905C211.13 76.4538 211.609 75.7392 211.859 74.9342ZM204.515 71.3193H211.859C211.841 70.427 211.557 69.5603 211.043 68.8305C210.714 68.4156 210.292 68.083 209.812 67.8592C209.332 67.6355 208.806 67.5266 208.277 67.5412C207.8 67.5258 207.325 67.6067 206.881 67.7792C206.436 67.9517 206.031 68.2121 205.69 68.5449C204.965 69.2885 204.55 70.2807 204.531 71.3193H204.515Z" fill="#030303"/>
<path d="M225.364 84.2189V77.7725C224.982 78.2862 224.484 78.7027 223.912 78.9884C223.296 79.3054 222.613 79.4705 221.921 79.4698C221.151 79.4713 220.39 79.304 219.693 78.9797C218.995 78.6555 218.376 78.1821 217.881 77.593C216.684 76.1602 216.077 74.3248 216.184 72.4604C216.166 71.2392 216.402 70.0277 216.878 68.9026C217.281 67.9183 217.979 67.083 218.877 66.5117C219.735 65.9731 220.728 65.69 221.741 65.6957C222.504 65.6734 223.259 65.8488 223.934 66.2048C224.609 66.5608 225.18 67.0854 225.593 67.7276V65.9977H227.6V84.2189H225.364ZM218.485 72.5501C218.384 73.9052 218.759 75.2529 219.546 76.3609C219.848 76.7537 220.236 77.0725 220.68 77.293C221.124 77.5136 221.613 77.6301 222.108 77.6338C222.581 77.6302 223.047 77.5197 223.471 77.3106C223.895 77.1014 224.266 76.7991 224.556 76.4261C225.328 75.3616 225.695 74.0569 225.593 72.746C225.692 71.3417 225.309 69.9456 224.507 68.7884C224.212 68.3861 223.828 68.057 223.385 67.8265C222.942 67.5959 222.452 67.4699 221.953 67.4583C221.477 67.4608 221.008 67.5742 220.583 67.7895C220.158 68.0048 219.789 68.316 219.505 68.6986C218.737 69.829 218.377 71.1876 218.485 72.5501Z" fill="#030303"/>
<path d="M239.725 79.1525V77.2349C239.281 77.9367 238.663 78.5116 237.931 78.9034C237.199 79.2953 236.377 79.4907 235.547 79.4707C234.797 79.4773 234.055 79.3243 233.368 79.0219C232.78 78.7884 232.265 78.4025 231.875 77.904C231.527 77.4174 231.29 76.8602 231.181 76.272C231.071 75.5814 231.025 74.8821 231.043 74.183V66.023H233.279V73.367C233.253 74.1557 233.3 74.945 233.417 75.7253C233.533 76.2813 233.85 76.7752 234.307 77.1125C234.801 77.4569 235.394 77.6315 235.996 77.6102C236.659 77.6118 237.31 77.4342 237.881 77.0961C238.444 76.783 238.884 76.2882 239.129 75.6926C239.412 74.8664 239.536 73.9945 239.497 73.1222V65.9985H241.724V79.1525H239.725Z" fill="#030303"/>
<path d="M254.242 74.934L256.551 75.2114C256.249 76.4517 255.536 77.5532 254.528 78.3367C253.258 79.1666 251.749 79.5519 250.237 79.4323C248.725 79.3127 247.295 78.6949 246.172 77.6757C244.978 76.2956 244.372 74.5032 244.483 72.6818C244.366 70.8073 244.977 68.9601 246.188 67.5247C246.755 66.9188 247.446 66.4414 248.213 66.1247C248.98 65.808 249.806 65.6593 250.635 65.6887C251.442 65.6618 252.244 65.8082 252.989 66.1178C253.733 66.4275 254.403 66.8934 254.952 67.4839C256.138 68.8933 256.737 70.7046 256.625 72.5431C256.625 72.6737 256.625 72.8777 256.625 73.1388H246.833C246.83 74.3581 247.268 75.5375 248.065 76.4599C248.415 76.8372 248.841 77.1357 249.315 77.3355C249.789 77.5353 250.301 77.6318 250.815 77.6186C251.566 77.6418 252.304 77.4151 252.912 76.974C253.541 76.4351 254.003 75.7271 254.242 74.934ZM246.898 71.3191H254.242C254.224 70.4267 253.94 69.5601 253.426 68.8303C253.096 68.4163 252.674 68.0844 252.195 67.8607C251.715 67.6371 251.189 67.5276 250.66 67.541C250.182 67.5245 249.706 67.6049 249.26 67.7774C248.814 67.9499 248.407 68.2109 248.065 68.5447C247.343 69.2896 246.931 70.2816 246.915 71.3191H246.898Z" fill="#030303"/>
<path d="M258.461 75.2436L260.664 74.8927C260.739 75.6771 261.109 76.4036 261.7 76.9246C262.384 77.4336 263.225 77.6851 264.075 77.6345C264.887 77.697 265.694 77.4749 266.36 77.0062C266.588 76.8347 266.774 76.6131 266.902 76.3584C267.031 76.1037 267.1 75.8228 267.102 75.5374C267.106 75.2992 267.048 75.0641 266.934 74.8552C266.819 74.6462 266.653 74.4708 266.45 74.346C265.721 74.0029 264.954 73.7481 264.165 73.5871C263.001 73.3323 261.862 72.9746 260.762 72.5182C260.18 72.2586 259.687 71.8344 259.343 71.2979C259 70.7614 258.821 70.1361 258.828 69.499C258.825 68.9293 258.965 68.368 259.236 67.867C259.493 67.3749 259.858 66.9479 260.305 66.6185C260.74 66.3249 261.219 66.1044 261.725 65.9657C262.354 65.7889 263.005 65.701 263.659 65.7046C264.584 65.6866 265.504 65.8359 266.376 66.1452C267.06 66.3717 267.661 66.7946 268.106 67.3611C268.535 67.9675 268.814 68.6664 268.922 69.4011L266.735 69.6948C266.707 69.3788 266.616 69.0716 266.468 68.7913C266.319 68.511 266.116 68.2633 265.87 68.0628C265.282 67.6521 264.571 67.4536 263.855 67.4998C263.088 67.432 262.319 67.6092 261.66 68.0057C261.464 68.138 261.303 68.3152 261.189 68.5224C261.076 68.7296 261.013 68.9609 261.007 69.1971C260.999 69.4922 261.094 69.7808 261.276 70.0131C261.505 70.2834 261.8 70.4888 262.133 70.6087C262.353 70.6903 263.014 70.878 264.108 71.1718C265.229 71.4495 266.333 71.7956 267.412 72.2081C268.003 72.4536 268.512 72.8609 268.881 73.3831C269.252 73.9493 269.437 74.6165 269.412 75.2926C269.411 76.0428 269.186 76.7757 268.767 77.3979C268.288 78.0889 267.615 78.6227 266.833 78.9319C265.956 79.3027 265.011 79.4861 264.059 79.4705C262.67 79.5638 261.291 79.1873 260.142 78.4015C259.203 77.5986 258.603 76.4706 258.461 75.2436Z" fill="#030303"/>
<path d="M276.928 77.1779L277.254 79.1445C276.7 79.2727 276.134 79.3411 275.565 79.3485C274.913 79.3852 274.263 79.2501 273.68 78.9568C273.263 78.7351 272.93 78.3824 272.733 77.9531C272.501 77.0951 272.41 76.2048 272.464 75.3174V67.7286H270.832V65.9987H272.464V62.7347L274.684 61.3965V65.9987H276.928V67.7286H274.684V75.4317C274.66 75.8431 274.698 76.2558 274.798 76.6557C274.879 76.8373 275.013 76.9907 275.181 77.0963C275.419 77.2142 275.684 77.2676 275.948 77.2514C276.276 77.2488 276.603 77.2242 276.928 77.1779Z" fill="#030303"/>
</g>
<defs>
<clipPath id="clip0_2154_14237">
<rect width="408" height="408" fill="white"/>
</clipPath>
</defs>
</svg>
